<svg width="64" height="64" viewBox="0 0 64 64" fill="none" xmlns="http://www.w3.org/2000/svg">
<path d="M14.9753 53.3332C13.7469 53.3332 12.722 52.9225 11.9007 52.1012C11.0793 51.2798 10.6678 50.2541 10.666 49.0238V14.9758C10.666 13.7474 11.0776 12.7225 11.9007 11.9012C12.7238 11.0798 13.7487 10.6683 14.9753 10.6665H49.026C50.2527 10.6665 51.2776 11.0781 52.1007 11.9012C52.9238 12.7243 53.3345 13.7492 53.3327 14.9758V49.0265C53.3327 50.2532 52.922 51.2781 52.1007 52.1012C51.2794 52.9243 50.2536 53.3349 49.0234 53.3332H14.9753ZM14.9753 50.6665H30.666V13.3332H14.9753C14.5647 13.3332 14.1878 13.5038 13.8447 13.8452C13.5016 14.1865 13.3309 14.5634 13.3327 14.9758V49.0265C13.3327 49.4354 13.5033 49.8114 13.8447 50.1545C14.186 50.4976 14.562 50.6683 14.9727 50.6665M33.3327 50.6665H49.026C49.4349 50.6665 49.8109 50.4958 50.154 50.1545C50.4971 49.8132 50.6678 49.4363 50.666 49.0238V31.9998H33.3327V50.6665ZM33.3327 29.3332H50.666V14.9758C50.666 14.5652 50.4953 14.1883 50.154 13.8452C49.8127 13.5021 49.4358 13.3314 49.0234 13.3332H33.3327V29.3332Z" fill="#00A651"/>
</svg>
