<svg width="64" height="64" viewBox="0 0 64 64" fill="none" xmlns="http://www.w3.org/2000/svg">
<path d="M10.7407 41.9733C10.4865 41.719 10.3594 41.4035 10.3594 41.0266V22.9733C10.3594 22.5964 10.4874 22.2799 10.7434 22.0239C10.9994 21.7679 11.3158 21.6408 11.6927 21.6426C12.0696 21.6444 12.386 21.7715 12.642 22.0239C12.898 22.2764 13.026 22.5937 13.026 22.9759V41.0266C13.026 41.4035 12.898 41.7199 12.642 41.9759C12.386 42.2319 12.0687 42.3599 11.69 42.3599C11.3114 42.3599 10.9949 42.2319 10.7407 41.9759M19.2554 46.8719C18.6545 46.8719 18.1496 46.6648 17.7407 46.2506C17.3318 45.8346 17.1274 45.3208 17.1274 44.7093V25.2319C17.1274 22.9813 17.9212 21.0675 19.5087 19.4906C21.0945 17.9155 23.002 17.1279 25.2314 17.1279H38.77C41.0189 17.1279 42.9318 17.9155 44.5087 19.4906C46.0838 21.0675 46.8714 22.9804 46.8714 25.2293V44.7093C46.8714 45.3208 46.6669 45.8346 46.258 46.2506C45.8492 46.6666 45.3443 46.8737 44.7434 46.8719H19.2554ZM51.3567 41.9759C51.1025 41.7199 50.9754 41.4035 50.9754 41.0266V22.9733C50.9754 22.5964 51.1025 22.2799 51.3567 22.0239C51.6127 21.7697 51.93 21.6426 52.3087 21.6426C52.6874 21.6426 53.0038 21.7697 53.258 22.0239C53.5123 22.2782 53.6403 22.5955 53.642 22.9759V41.0266C53.642 41.4035 53.514 41.7199 53.258 41.9759C53.002 42.2319 52.6847 42.3599 52.306 42.3599C51.9274 42.3599 51.6109 42.2319 51.3567 41.9759ZM19.794 44.2053H30.666V33.3333H27.4874C27.1087 33.3333 26.7923 33.2053 26.538 32.9493C26.2838 32.6933 26.1558 32.3759 26.154 31.9973C26.1523 31.6186 26.2803 31.3022 26.538 31.0479C26.7958 30.7937 27.1123 30.6666 27.4874 30.6666H30.666V19.7946H25.2287C23.7354 19.7946 22.4554 20.327 21.3887 21.3919C20.3256 22.4568 19.794 23.7368 19.794 25.2319V44.2053ZM33.3327 44.2053H44.2047V25.2293C44.2047 23.7359 43.6723 22.4559 42.6074 21.3893C41.5425 20.3262 40.2625 19.7946 38.7674 19.7946H33.3327V30.6666H36.5114C36.89 30.6666 37.2065 30.7946 37.4607 31.0506C37.7149 31.3066 37.8429 31.6239 37.8447 32.0026C37.8465 32.3813 37.7185 32.6977 37.4607 32.9519C37.2029 33.2062 36.8865 33.3333 36.5114 33.3333H33.3327V44.2053Z" fill="#00A651"/>
</svg>
