<svg width="64" height="64" viewBox="0 0 64 64" fill="none" xmlns="http://www.w3.org/2000/svg">
<path d="M42.666 31.9998H61.3327M61.3327 8.6665H51.9994C50.3994 8.6665 49.3327 9.73317 49.3327 11.3332V52.6665C49.3327 54.2665 50.3994 55.3332 51.9994 55.3332H61.3327M36.5327 52.6665C34.1327 45.7332 27.466 40.6665 19.7327 40.6665C11.9993 40.6665 5.06602 45.7332 2.66602 52.6665M19.466 16.6665V8.6665M4.79935 24.3998H34.1327M8.53268 27.3332C8.79935 33.1998 13.5993 37.9998 19.466 37.9998C25.5994 37.9998 30.3993 33.1998 30.3993 27.0665V22.2665C30.3993 16.1332 25.5994 11.3332 19.466 11.3332C13.5993 11.3332 8.79935 16.1332 8.53268 21.9998V27.3332Z" stroke="#00A651" stroke-width="2" stroke-miterlimit="10" stroke-linecap="round" stroke-linejoin="round"/>
</svg>
