<svg width="64" height="64" viewBox="0 0 64 64" fill="none" xmlns="http://www.w3.org/2000/svg">
<g clip-path="url(#clip0_231_3014)">
<path d="M64 17.3335C63.1227 17.3335 62.2427 17.5202 61.5013 17.9869C57.3333 20.6215 57.3333 24.2135 57.3333 26.6669V28.0002H45.3333M24 36.0002H64M44 36.0002V64.0002M32 62.6669C29.3333 62.6669 27.3333 58.6669 27.3333 58.6669C25.3333 54.6669 25.3333 52.0002 25.3333 48.0002V44.0002H4V43.3335L9.12533 23.3469C9.56635 21.6266 10.5672 20.102 11.9703 19.0132C13.3733 17.9245 15.0988 17.3335 16.8747 17.3335H20L23.8587 25.0509C24.3017 25.9374 24.983 26.683 25.8261 27.204C26.6693 27.7249 27.6409 28.0007 28.632 28.0002H40M19.6 12.0002C19.6 12.0002 15.3333 9.33353 15.3333 6.0002C15.3333 5.38807 15.4539 4.78192 15.6882 4.21639C15.9224 3.65085 16.2658 3.13698 16.6986 2.70414C17.1315 2.2713 17.6453 1.92794 18.2109 1.69369C18.7764 1.45944 19.3825 1.33887 19.9947 1.33887C20.6068 1.33887 21.2129 1.45944 21.7785 1.69369C22.344 1.92794 22.8579 2.2713 23.2907 2.70414C23.7236 3.13698 24.0669 3.65085 24.3012 4.21639C24.5354 4.78192 24.656 5.38807 24.656 6.0002C24.656 9.33353 20.4 12.0002 20.4 12.0002H19.6Z" stroke="#00A651" stroke-width="2"/>
</g>
<defs>
<clipPath id="clip0_231_3014">
<rect width="64" height="64" fill="white"/>
</clipPath>
</defs>
</svg>
