<svg width="64" height="64" viewBox="0 0 64 64" fill="none" xmlns="http://www.w3.org/2000/svg">
<path d="M26.6667 50.6668V62.6668M26.6667 50.6668C26.6667 40.0002 35.112 24.5175 45.5013 15.8588L49.3333 12.6668V12.0002H36.0747M26.6667 50.6668C26.6667 40.0002 18.2213 24.5175 7.832 15.8588L4 12.6668V12.0002H36.0747M26.6667 62.6668H13.3333M26.6667 62.6668H40M36.0747 12.0002C36.3321 9.69798 37.2503 7.51951 38.7185 5.72771C40.1868 3.93592 42.1423 2.6074 44.349 1.90252C46.5556 1.19764 48.9192 1.14653 51.1543 1.75537C53.3893 2.36421 55.4004 3.60697 56.9447 5.33363C58.4891 7.06029 59.5006 9.19704 59.8573 11.4859C60.2139 13.7748 59.9005 16.1181 58.9547 18.2327C58.0089 20.3474 56.4713 22.1431 54.5274 23.4031C52.5836 24.6631 50.3165 25.3336 48 25.3335M14.6667 22.6668H38.6667" stroke="#00A651" stroke-width="2"/>
</svg>
