<svg width="64" height="64" viewBox="0 0 64 64" fill="none" xmlns="http://www.w3.org/2000/svg">
<path d="M8 13.3335H22.48C23.3578 13.3336 24.2221 13.1171 24.9962 12.7031C25.7702 12.2891 26.4301 11.6904 26.9173 10.9602L29.0827 7.70683C29.5699 6.97661 30.2298 6.37793 31.0038 5.96392C31.7779 5.54991 32.6422 5.33336 33.52 5.3335H45.488C46.6078 5.33323 47.6993 5.68544 48.6077 6.3402C49.5162 6.99497 50.1955 7.91906 50.5493 8.9815L52 13.3335M56 13.3335H21.3333" stroke="#00A651" stroke-width="2" stroke-linecap="round"/>
<path d="M52 13.3335L50.6667 30.6668M12 13.3335L13.6133 41.4295C14.024 48.2828 14.232 51.7122 15.944 54.1762C16.7893 55.3975 17.88 56.4242 19.144 57.1975C20.696 58.1468 22.568 58.5202 25.3333 58.6668" stroke="#00A651" stroke-width="2" stroke-linecap="round"/>
<path d="M29.334 41.3282L32.3633 45.2376C32.9136 43.1836 34.0651 41.3409 35.6702 39.9462C37.2753 38.5515 39.2606 37.6683 41.3713 37.41C43.4819 37.1518 45.6216 37.5303 47.5156 38.4969C49.4096 39.4635 50.9714 40.9742 52.0006 42.8349M56.0006 54.6616L52.9713 50.7576C52.4255 52.7955 51.2875 54.6259 49.7014 56.0171C48.1153 57.4083 46.1522 58.2979 44.0604 58.5733C41.9687 58.8488 39.8422 58.4977 37.95 57.5646C36.0578 56.6314 34.4848 55.1581 33.43 53.3309" stroke="#00A651" stroke-width="2" stroke-linecap="round" stroke-linejoin="round"/>
</svg>
