<svg width="64" height="64" viewBox="0 0 64 64" fill="none" xmlns="http://www.w3.org/2000/svg">
<path d="M40 34.667V37.3337C40 44.875 40 48.6483 42.344 50.9897C44.6853 53.3337 48.4587 53.3337 56 53.3337" stroke="#00A651" stroke-width="2" stroke-linejoin="round"/>
<path d="M55.1758 48V58.6667" stroke="#00A651" stroke-width="2" stroke-linecap="round" stroke-linejoin="round"/>
<path d="M24.0001 28.88L22.5681 29.0373C20.4241 29.2773 19.3521 29.3947 18.4987 29.304C14.3334 28.8507 11.0481 25.1573 10.6881 20.52C10.6134 19.5707 10.7334 18.3813 10.9707 16" stroke="#00A651" stroke-width="2" stroke-linejoin="round"/>
<path d="M36.5098 18.667H36.5364" stroke="#00A651" stroke-width="2" stroke-linecap="round" stroke-linejoin="round"/>
<path d="M45.334 18.667H57.334" stroke="#00A651" stroke-width="2" stroke-linecap="round" stroke-linejoin="round"/>
<path d="M5.9898 11.2642C5.3978 8.87216 5.1018 7.6775 5.55246 6.78683C5.70447 6.48455 5.91262 6.21396 6.1658 5.9895C6.91513 5.3335 8.1338 5.3335 10.5791 5.3335H44.1471C52.1658 5.3335 58.6671 11.8988 58.6671 20.0002C58.6671 28.1015 52.1658 34.6668 44.1445 34.6668H31.4805C29.3045 34.6668 28.2165 34.6668 27.2831 34.2935C26.5624 34.0042 25.9135 33.561 25.3818 32.9948C24.6911 32.2562 24.2885 31.2348 23.4805 29.1975L22.0458 25.5788C21.2191 23.4855 20.8031 22.4402 20.0378 21.6642C19.2698 20.8908 18.2351 20.4722 16.1631 19.6375L11.6511 17.8135C9.71246 17.0295 8.74446 16.6402 8.01646 15.9468C7.76152 15.7052 7.53107 15.4391 7.32846 15.1522C6.7498 14.3308 6.49646 13.3095 5.9898 11.2642Z" stroke="#00A651" stroke-width="2" stroke-linejoin="round"/>
</svg>
