<svg width="64" height="64" viewBox="0 0 64 64" fill="none" xmlns="http://www.w3.org/2000/svg">
<path d="M38.6673 56V42.6667C38.6673 41.9594 38.3864 41.2811 37.8863 40.781C37.3862 40.281 36.7079 40 36.0007 40H28.0007C27.2934 40 26.6151 40.281 26.115 40.781C25.6149 41.2811 25.334 41.9594 25.334 42.6667V56" stroke="#00A651" stroke-width="2" stroke-linecap="round" stroke-linejoin="round"/>
<path d="M13.3341 29.3333V45.3333C13.3341 50.3627 13.3341 52.8747 14.8968 54.4373C16.4594 56 18.9714 56 24.0008 56H40.0008C45.0301 56 47.5421 56 49.1048 54.4373C50.6674 52.8747 50.6674 50.3627 50.6674 45.3333V29.3333M12.3234 12.04C12.8087 10.0987 13.0514 9.13067 13.7741 8.56533C14.4994 8 15.4994 8 17.4994 8H46.5021C48.5021 8 49.5021 8 50.2274 8.56533C50.9474 9.13067 51.1928 10.0987 51.6781 12.04L54.8861 24.8773C55.1448 25.912 55.2754 26.4267 55.2461 26.848C55.2096 27.3794 55.0148 27.8876 54.6869 28.3073C54.359 28.727 53.9129 29.0388 53.4061 29.2027C53.0061 29.3333 52.4621 29.3333 51.3714 29.3333C49.9501 29.3333 49.2381 29.3333 48.6434 29.1947C47.8189 29.0026 47.052 28.6171 46.4061 28.0699C45.7602 27.5227 45.2538 26.8297 44.9288 26.048C44.6914 25.4827 44.5768 24.7947 44.3501 23.4267C44.2861 23.0427 44.2541 22.8507 44.2167 22.8C44.192 22.7659 44.1596 22.7381 44.122 22.7189C44.0845 22.6997 44.0429 22.6897 44.0008 22.6897C43.9586 22.6897 43.917 22.6997 43.8795 22.7189C43.8419 22.7381 43.8095 22.7659 43.7848 22.8C43.7474 22.8507 43.7154 23.04 43.6514 23.4267L43.4354 24.7307L43.3874 24.9973C43.1596 26.1961 42.5275 27.2805 41.5967 28.0696C40.6659 28.8587 39.4927 29.3048 38.2728 29.3333H37.7288C36.4617 29.3047 35.2462 28.8257 34.3002 27.9823C33.3541 27.1389 32.7394 25.9862 32.5661 24.7307L32.3501 23.424C32.2861 23.0427 32.2541 22.8507 32.2168 22.8C32.192 22.7659 32.1596 22.7381 32.122 22.7189C32.0845 22.6997 32.0429 22.6897 32.0008 22.6897C31.9586 22.6897 31.917 22.6997 31.8795 22.7189C31.8419 22.7381 31.8095 22.7659 31.7848 22.8C31.7474 22.8507 31.7154 23.04 31.6514 23.4267L31.4354 24.7307L31.3874 24.9973C31.1596 26.1961 30.5275 27.2805 29.5967 28.0696C28.6659 28.8587 27.4927 29.3048 26.2728 29.3333H25.7288C24.5088 29.3048 23.3356 28.8587 22.4048 28.0696C21.474 27.2805 20.8419 26.1961 20.6141 24.9973L20.5661 24.7307L20.3501 23.424C20.2861 23.0427 20.2541 22.8507 20.2168 22.8C20.192 22.7659 20.1596 22.7381 20.122 22.7189C20.0845 22.6997 20.0429 22.6897 20.0008 22.6897C19.9586 22.6897 19.917 22.6997 19.8795 22.7189C19.8419 22.7381 19.8095 22.7659 19.7848 22.8C19.7474 22.8507 19.7154 23.04 19.6514 23.4267C19.4248 24.7973 19.3101 25.48 19.0728 26.048C18.748 26.8294 18.242 27.5222 17.5966 28.0694C16.9511 28.6165 16.1847 29.0022 15.3608 29.1947C14.7634 29.3333 14.0541 29.3333 12.6301 29.3333C11.5394 29.3333 10.9954 29.3333 10.5954 29.2027C10.0886 29.0388 9.64254 28.727 9.3146 28.3073C8.98666 27.8876 8.7919 27.3794 8.75542 26.848C8.72875 26.4267 8.85675 25.912 9.11542 24.8773L12.3234 12.04Z" stroke="#00A651" stroke-width="2"/>
</svg>
