<svg width="64" height="64" viewBox="0 0 64 64" fill="none" xmlns="http://www.w3.org/2000/svg">
<path d="M8.56445 55.8985L12.8205 34.6159H51.1271L55.3831 55.8959L8.56445 55.8985ZM9.84445 10.6666V7.99989H17.0765V10.6666H9.84445ZM11.8658 53.2319H30.6658V46.6665H13.1885L11.8658 53.2319ZM16.0258 24.6106L14.1218 22.7759L19.2258 17.6719L21.1298 19.5092L16.0258 24.6106ZM13.7431 43.9999H30.6658V37.2799H15.0658L13.7431 43.9999ZM24.3618 15.5866C22.2747 13.4994 21.2311 10.9537 21.2311 7.94922H23.8978C23.8978 10.2052 24.6836 12.1199 26.2551 13.6932C27.8285 15.2648 29.7431 16.0506 31.9991 16.0506C34.2551 16.0506 36.1698 15.2648 37.7431 13.6932C39.3165 12.1217 40.1031 10.207 40.1031 7.94922H42.7698C42.7698 10.9537 41.7262 13.4994 39.6391 15.5866C37.552 17.6737 35.0053 18.7181 31.9991 18.7199C28.9929 18.7217 26.4471 17.6772 24.3618 15.5866ZM30.6658 29.8452V22.6159H33.3325V29.8452H30.6658ZM33.3325 53.2319H52.0791L50.7591 46.6665H33.3325V53.2319ZM33.3325 43.9999H50.2045L48.8818 37.2799H33.3325V43.9999ZM48.0765 24.6612L42.9378 19.5092L44.7751 17.6719L49.9778 22.7599L48.0765 24.6612ZM46.9218 10.6666V7.99989H54.1538V10.6666H46.9218Z" fill="#00A651"/>
</svg>
