<svg width="64" height="64" viewBox="0 0 64 64" fill="none" xmlns="http://www.w3.org/2000/svg">
<path d="M6.66602 54.5655V51.7948C8.04735 51.6242 9.15135 51.1708 9.97802 50.4348C10.8065 49.7006 12.2598 49.3335 14.338 49.3335C16.4162 49.3335 17.9567 49.7779 18.9593 50.6668C19.962 51.5557 21.3656 52.0002 23.17 52.0002C24.9745 52.0002 26.3771 51.5557 27.378 50.6668C28.3789 49.7779 29.9193 49.3335 31.9993 49.3335C34.0793 49.3335 35.6367 49.7779 36.6713 50.6668C37.706 51.5557 39.1265 52.0002 40.9327 52.0002C42.7389 52.0002 44.1256 51.5557 45.0927 50.6668C46.0598 49.7779 47.5825 49.3335 49.6607 49.3335C51.7389 49.3335 53.1922 49.7015 54.0207 50.4375C54.8491 51.1735 55.9531 51.6259 57.3327 51.7948V54.5655C55.7362 54.3593 54.4758 53.8802 53.5514 53.1282C52.6269 52.3762 51.33 52.0002 49.6607 52.0002C47.9913 52.0002 46.674 52.4446 45.7087 53.3335C44.7398 54.2224 43.1478 54.6668 40.9327 54.6668C38.7176 54.6668 37.0918 54.2224 36.0553 53.3335C35.0207 52.4446 33.6687 52.0002 31.9993 52.0002C30.33 52.0002 28.9949 52.4446 27.994 53.3335C26.9931 54.2224 25.3842 54.6668 23.1673 54.6668C20.9505 54.6668 19.3416 54.2224 18.3407 53.3335C17.3416 52.4446 16.0073 52.0002 14.338 52.0002C12.6687 52.0002 11.3718 52.3762 10.4473 53.1282C9.5229 53.8802 8.26246 54.3593 6.66602 54.5655ZM6.66602 42.5655V39.7948C8.04735 39.6242 9.15135 39.1708 9.97802 38.4348C10.8065 37.7006 12.2598 37.3335 14.338 37.3335C16.4162 37.3335 17.9593 37.7779 18.9673 38.6668C19.9753 39.5557 21.3762 40.0002 23.17 40.0002C24.9745 40.0002 26.3771 39.5557 27.378 38.6668C28.3789 37.7779 29.9193 37.3335 31.9993 37.3335C34.0793 37.3335 35.6198 37.7779 36.6207 38.6668C37.6216 39.5557 39.0242 40.0002 40.8287 40.0002C42.6331 40.0002 44.0376 39.5557 45.042 38.6668C46.0429 37.7779 47.5825 37.3335 49.6607 37.3335C51.7389 37.3335 53.1922 37.7015 54.0207 38.4375C54.8491 39.1735 55.9531 39.6259 57.3327 39.7948V42.5628C55.7362 42.3584 54.4758 41.8802 53.5514 41.1282C52.6269 40.3762 51.33 40.0002 49.6607 40.0002C47.9913 40.0002 46.6811 40.4446 45.73 41.3335C44.7789 42.2224 43.1798 42.6668 40.9327 42.6668C38.7069 42.6668 37.0785 42.2224 36.0473 41.3335C35.0162 40.4446 33.6669 40.0002 31.9993 40.0002C30.3105 40.0002 28.978 40.4446 28.002 41.3335C27.026 42.2224 25.4153 42.6668 23.17 42.6668C20.9247 42.6668 19.3078 42.2224 18.3193 41.3335C17.3309 40.4446 16.0038 40.0002 14.338 40.0002C12.6722 40.0002 11.3753 40.3762 10.4473 41.1282C9.51935 41.8802 8.2589 42.3593 6.66602 42.5655ZM47.8047 11.5068C48.9069 12.6126 49.458 13.9397 49.458 15.4882C49.458 17.0473 48.9069 18.3771 47.8047 19.4775C46.7025 20.5779 45.3727 21.1282 43.8153 21.1282C42.258 21.1282 40.9273 20.5771 39.8233 19.4748C38.7247 18.3762 38.1754 17.0473 38.1754 15.4882C38.1754 13.9397 38.7247 12.6126 39.8233 11.5068C40.9256 10.3993 42.2562 9.8455 43.8153 9.8455C45.3745 9.8455 46.7042 10.3993 47.8047 11.5068ZM23.1167 30.6668C22.6278 30.6668 22.1985 30.5913 21.8287 30.4402C21.4589 30.2891 21.1025 30.0704 20.7593 29.7842L29.37 21.1735L25.266 17.0722L15.3007 13.0268V9.3335L27.7113 14.2562L43.242 29.7842C42.8953 30.0686 42.538 30.2864 42.17 30.4375C41.8002 30.5904 41.3709 30.6668 40.882 30.6668C39.6909 30.6668 38.5176 30.2224 37.362 29.3335C36.2065 28.4446 34.4189 28.0002 31.9993 28.0002C29.5798 28.0002 27.7922 28.4446 26.6367 29.3335C25.4811 30.2224 24.3078 30.6668 23.1167 30.6668Z" fill="#00A651"/>
</svg>
