<svg width="64" height="64" viewBox="0 0 64 64" fill="none" xmlns="http://www.w3.org/2000/svg">
<path d="M12.3093 10.6665L16.3093 18.6665H24.3093L20.3093 10.6665H25.6427L29.6427 18.6665H37.6427L33.6427 10.6665H38.976L42.976 18.6665H50.976L46.976 10.6665H56V53.3332H8V10.6665H12.3093ZM10.6667 21.3332V50.6665H53.3333V21.3332H10.6667ZM23.1787 45.6425H40.8213V45.1998C40.8213 43.7918 39.9884 42.6247 38.3227 41.6985C36.6569 40.7705 34.5493 40.3065 32 40.3065C29.4507 40.3065 27.3431 40.7696 25.6773 41.6958C24.0116 42.6221 23.1787 43.7901 23.1787 45.1998V45.6425ZM34.8427 34.8425C35.6142 34.0727 36 33.1252 36 31.9998C36 30.8745 35.6142 29.9269 34.8427 29.1572C34.0711 28.3874 33.1236 28.0016 32 27.9998C30.8764 27.9981 29.9289 28.3838 29.1573 29.1572C28.3858 29.9269 28 30.8745 28 31.9998C28 33.1252 28.3858 34.0727 29.1573 34.8425C29.9289 35.6123 30.8764 35.9981 32 35.9998C33.1236 36.0016 34.0711 35.6158 34.8427 34.8425Z" fill="#00A651"/>
</svg>
