<svg width="64" height="64" viewBox="0 0 64 64" fill="none" xmlns="http://www.w3.org/2000/svg">
<path d="M29.089 53.2721C28.2961 52.4792 27.8996 51.5085 27.8996 50.3601C27.8996 49.2117 28.2961 48.2401 29.089 47.4454C29.8819 46.6508 30.8525 46.2543 32.001 46.2561C33.1494 46.2579 34.1201 46.6543 34.913 47.4454C35.7059 48.2365 36.1023 49.2081 36.1023 50.3601C36.1023 51.5121 35.7059 52.4828 34.913 53.2721C34.1201 54.0614 33.1494 54.4579 32.001 54.4614C30.8525 54.465 29.8819 54.0685 29.089 53.2721ZM40.8356 32.3708C43.5947 33.4374 46.0774 34.921 48.2836 36.8214C48.7281 37.1805 48.961 37.6312 48.9823 38.1734C49.0054 38.7139 48.8223 39.1797 48.433 39.5708C48.0525 39.9494 47.5894 40.1325 47.0436 40.1201C46.4979 40.1077 46.0019 39.9272 45.5556 39.5788C43.7299 38.0481 41.6579 36.8463 39.3396 35.9734C37.0214 35.1023 34.5752 34.6668 32.001 34.6668C29.4267 34.6668 26.9805 35.1023 24.6623 35.9734C22.3441 36.8445 20.273 38.0463 18.449 39.5788C18.0045 39.9272 17.5076 40.105 16.9583 40.1121C16.4125 40.1192 15.9503 39.9325 15.5716 39.5521C15.1912 39.1628 15.009 38.6979 15.025 38.1574C15.041 37.617 15.2721 37.1663 15.7183 36.8054C17.9227 34.9032 20.4063 33.4223 23.169 32.3628C25.9281 31.3014 28.8721 30.7708 32.001 30.7708C35.1299 30.7708 38.0747 31.3041 40.8356 32.3708ZM47.137 17.5788C51.809 19.4525 55.9636 22.057 59.601 25.3921C60.0454 25.769 60.2819 26.2401 60.3103 26.8054C60.337 27.369 60.1556 27.8463 59.7663 28.2374C59.3521 28.6499 58.8632 28.8241 58.2996 28.7601C57.7343 28.6979 57.2125 28.465 56.7343 28.0614C53.4312 25.0979 49.6712 22.7912 45.4543 21.1414C41.2374 19.4917 36.753 18.6668 32.001 18.6668C27.249 18.6668 22.7645 19.4917 18.5476 21.1414C14.3307 22.7912 10.5707 25.0979 7.26763 28.0614C6.78763 28.465 6.26674 28.6988 5.70497 28.7628C5.13963 28.825 4.65074 28.6499 4.2383 28.2374C3.84719 27.8463 3.66585 27.369 3.6943 26.8054C3.72097 26.2419 3.95652 25.7708 4.40097 25.3921C8.0383 22.057 12.193 19.4525 16.865 17.5788C21.537 15.7085 26.5823 14.7734 32.001 14.7734C37.4196 14.7734 42.465 15.7068 47.137 17.5788Z" fill="#00A651"/>
</svg>
