<svg width="64" height="64" viewBox="0 0 64 64" fill="none" xmlns="http://www.w3.org/2000/svg">
<path d="M58 49.0001H49V41.0001H56C56.1528 41.0003 56.3036 40.9656 56.4408 40.8985C56.5781 40.8314 56.6981 40.7338 56.7918 40.6131C56.8854 40.4924 56.9502 40.3519 56.9811 40.2023C57.012 40.0527 57.0082 39.898 56.97 39.7501L48.97 7.75006C48.9158 7.53383 48.7909 7.34191 48.6152 7.20478C48.4394 7.06765 48.2229 6.99316 48 6.99316C47.7771 6.99316 47.5606 7.06765 47.3848 7.20478C47.2091 7.34191 47.0842 7.53383 47.03 7.75006L39.03 39.7501C38.9918 39.898 38.988 40.0527 39.0189 40.2023C39.0498 40.3519 39.1146 40.4924 39.2082 40.6131C39.3019 40.7338 39.4219 40.8314 39.5592 40.8985C39.6964 40.9656 39.8472 41.0003 40 41.0001H47V49.0001H29V43.0001H32C32.2652 43.0001 32.5196 42.8947 32.7071 42.7072C32.8946 42.5196 33 42.2653 33 42.0001C33 41.7348 32.8946 41.4805 32.7071 41.293C32.5196 41.1054 32.2652 41.0001 32 41.0001H29V35.0001H32C32.2652 35.0001 32.5196 34.8947 32.7071 34.7072C32.8946 34.5196 33 34.2653 33 34.0001C33 33.7348 32.8946 33.4805 32.7071 33.293C32.5196 33.1054 32.2652 33.0001 32 33.0001H10C9.73478 33.0001 9.48043 33.1054 9.29289 33.293C9.10536 33.4805 9 33.7348 9 34.0001C9 34.2653 9.10536 34.5196 9.29289 34.7072C9.48043 34.8947 9.73478 35.0001 10 35.0001H13V41.0001H10C9.73478 41.0001 9.48043 41.1054 9.29289 41.293C9.10536 41.4805 9 41.7348 9 42.0001C9 42.2653 9.10536 42.5196 9.29289 42.7072C9.48043 42.8947 9.73478 43.0001 10 43.0001H13V49.0001H6C5.73478 49.0001 5.48043 49.1054 5.29289 49.293C5.10536 49.4805 5 49.7348 5 50.0001C5 50.2653 5.10536 50.5196 5.29289 50.7072C5.48043 50.8947 5.73478 51.0001 6 51.0001H58C58.2652 51.0001 58.5196 50.8947 58.7071 50.7072C58.8946 50.5196 59 50.2653 59 50.0001C59 49.7348 58.8946 49.4805 58.7071 49.293C58.5196 49.1054 58.2652 49.0001 58 49.0001ZM48 12.1226L54.72 39.0001H41.28L48 12.1226ZM15 35.0001H27V41.0001H15V35.0001ZM15 43.0001H27V49.0001H15V43.0001ZM29 23.0001C30.1867 23.0001 31.3467 22.6482 32.3334 21.9889C33.3201 21.3296 34.0892 20.3925 34.5433 19.2962C34.9974 18.1998 35.1162 16.9934 34.8847 15.8295C34.6532 14.6656 34.0818 13.5965 33.2426 12.7574C32.4035 11.9183 31.3344 11.3469 30.1705 11.1153C29.0067 10.8838 27.8003 11.0027 26.7039 11.4568C25.6075 11.9109 24.6705 12.6799 24.0112 13.6666C23.3519 14.6533 23 15.8134 23 17.0001C23 18.5914 23.6321 20.1175 24.7574 21.2427C25.8826 22.3679 27.4087 23.0001 29 23.0001ZM29 13.0001C29.7911 13.0001 30.5645 13.2347 31.2223 13.6742C31.8801 14.1137 32.3928 14.7384 32.6955 15.4693C32.9983 16.2002 33.0775 17.0045 32.9231 17.7804C32.7688 18.5563 32.3878 19.2691 31.8284 19.8285C31.269 20.3879 30.5563 20.7689 29.7804 20.9232C29.0044 21.0775 28.2002 20.9983 27.4693 20.6956C26.7384 20.3928 26.1136 19.8801 25.6741 19.2223C25.2346 18.5645 25 17.7912 25 17.0001C25 15.9392 25.4214 14.9218 26.1716 14.1716C26.9217 13.4215 27.9391 13.0001 29 13.0001Z" fill="#00A651"/>
</svg>
