<svg width="64" height="64" viewBox="0 0 64 64" fill="none" xmlns="http://www.w3.org/2000/svg">
<path d="M60 27H56.58L49.445 14.5125C49.1811 14.0554 48.8013 13.6761 48.3439 13.4127C47.8865 13.1493 47.3678 13.0113 46.84 13.0125H40.6775L37.4275 4.8975C37.2068 4.33909 36.8237 3.85974 36.3276 3.52145C35.8316 3.18317 35.2454 3.00152 34.645 3H29.355C28.7552 2.99952 28.169 3.17886 27.6721 3.51488C27.1752 3.85089 26.7904 4.32814 26.5675 4.885L23.3225 13H17.16C16.6322 12.9988 16.1135 13.1368 15.6561 13.4002C15.1987 13.6636 14.8189 14.0429 14.555 14.5L7.42 27H4C3.73478 27 3.48043 27.1054 3.29289 27.2929C3.10536 27.4804 3 27.7348 3 28C3 28.2652 3.10536 28.5196 3.29289 28.7071C3.48043 28.8946 3.73478 29 4 29H7V50C7 50.7957 7.31607 51.5587 7.87868 52.1213C8.44129 52.6839 9.20435 53 10 53H16C16.7956 53 17.5587 52.6839 18.1213 52.1213C18.6839 51.5587 19 50.7957 19 50V45H45V50C45 50.7957 45.3161 51.5587 45.8787 52.1213C46.4413 52.6839 47.2043 53 48 53H54C54.7957 53 55.5587 52.6839 56.1213 52.1213C56.6839 51.5587 57 50.7957 57 50V29H60C60.2652 29 60.5196 28.8946 60.7071 28.7071C60.8946 28.5196 61 28.2652 61 28C61 27.7348 60.8946 27.4804 60.7071 27.2929C60.5196 27.1054 60.2652 27 60 27ZM28.425 5.6275C28.4995 5.4419 28.6279 5.28291 28.7937 5.17105C28.9595 5.05919 29.155 4.99961 29.355 5H34.645C34.845 4.99961 35.0405 5.05919 35.2063 5.17105C35.3721 5.28291 35.5005 5.4419 35.575 5.6275L38.5225 13H25.4775L28.425 5.6275ZM16.2925 15.5C16.3804 15.3478 16.5069 15.2214 16.6592 15.1336C16.8115 15.0458 16.9842 14.9997 17.16 15H46.84C47.0158 14.9997 47.1885 15.0458 47.3408 15.1336C47.4931 15.2214 47.6196 15.3478 47.7075 15.5L54.2775 27H9.7225L16.2925 15.5ZM17 50C17 50.2652 16.8946 50.5196 16.7071 50.7071C16.5196 50.8946 16.2652 51 16 51H10C9.73478 51 9.48043 50.8946 9.29289 50.7071C9.10536 50.5196 9 50.2652 9 50V45H17V50ZM54 51H48C47.7348 51 47.4804 50.8946 47.2929 50.7071C47.1054 50.5196 47 50.2652 47 50V45H55V50C55 50.2652 54.8946 50.5196 54.7071 50.7071C54.5196 50.8946 54.2652 51 54 51ZM55 43H9V29H55V43ZM15 36C15 35.7348 15.1054 35.4804 15.2929 35.2929C15.4804 35.1054 15.7348 35 16 35H20C20.2652 35 20.5196 35.1054 20.7071 35.2929C20.8946 35.4804 21 35.7348 21 36C21 36.2652 20.8946 36.5196 20.7071 36.7071C20.5196 36.8946 20.2652 37 20 37H16C15.7348 37 15.4804 36.8946 15.2929 36.7071C15.1054 36.5196 15 36.2652 15 36ZM43 36C43 35.7348 43.1054 35.4804 43.2929 35.2929C43.4804 35.1054 43.7348 35 44 35H48C48.2652 35 48.5196 35.1054 48.7071 35.2929C48.8946 35.4804 49 35.7348 49 36C49 36.2652 48.8946 36.5196 48.7071 36.7071C48.5196 36.8946 48.2652 37 48 37H44C43.7348 37 43.4804 36.8946 43.2929 36.7071C43.1054 36.5196 43 36.2652 43 36Z" fill="#00A651"/>
</svg>
