<svg width="64" height="64" viewBox="0 0 64 64" fill="none" xmlns="http://www.w3.org/2000/svg">
<path d="M33.334 45.3335H30.6673C29.8673 45.3335 29.334 45.8668 29.334 46.6668C29.334 47.4668 29.8673 48.0002 30.6673 48.0002H33.334C34.134 48.0002 34.6673 47.4668 34.6673 46.6668C34.6673 45.8668 34.134 45.3335 33.334 45.3335ZM20.0007 34.6668H17.334C16.534 34.6668 16.0007 35.2002 16.0007 36.0002C16.0007 36.8002 16.534 37.3335 17.334 37.3335H20.0007C20.8007 37.3335 21.334 36.8002 21.334 36.0002C21.334 35.2002 20.8007 34.6668 20.0007 34.6668ZM33.334 34.6668H30.6673C29.8673 34.6668 29.334 35.2002 29.334 36.0002C29.334 36.8002 29.8673 37.3335 30.6673 37.3335H33.334C34.134 37.3335 34.6673 36.8002 34.6673 36.0002C34.6673 35.2002 34.134 34.6668 33.334 34.6668ZM20.0007 45.3335H17.334C16.534 45.3335 16.0007 45.8668 16.0007 46.6668C16.0007 47.4668 16.534 48.0002 17.334 48.0002H20.0007C20.8007 48.0002 21.334 47.4668 21.334 46.6668C21.334 45.8668 20.8007 45.3335 20.0007 45.3335ZM36.0006 20.0002H33.334V17.3335C33.334 16.5335 32.8006 16.0002 32.0006 16.0002C31.2006 16.0002 30.6673 16.5335 30.6673 17.3335V20.0002H28.0007C27.2006 20.0002 26.6673 20.5335 26.6673 21.3335C26.6673 22.1335 27.2006 22.6668 28.0007 22.6668H30.6673V25.3335C30.6673 26.1335 31.2006 26.6668 32.0006 26.6668C32.8006 26.6668 33.334 26.1335 33.334 25.3335V22.6668H36.0006C36.8006 22.6668 37.334 22.1335 37.334 21.3335C37.334 20.5335 36.8006 20.0002 36.0006 20.0002ZM57.334 18.6668H48.0006V6.66683C48.0006 5.86683 47.4673 5.3335 46.6673 5.3335H17.334C16.534 5.3335 16.0007 5.86683 16.0007 6.66683V18.6668H6.66732C5.86732 18.6668 5.33398 19.2002 5.33398 20.0002V57.3335C5.33398 58.1335 5.86732 58.6668 6.66732 58.6668H57.334C58.134 58.6668 58.6673 58.1335 58.6673 57.3335V20.0002C58.6673 19.2002 58.134 18.6668 57.334 18.6668ZM56.0006 56.0002H8.00065V21.3335H17.334C18.134 21.3335 18.6673 20.8002 18.6673 20.0002V8.00016H45.334V20.0002C45.334 20.8002 45.8673 21.3335 46.6673 21.3335H56.0006V56.0002ZM46.6673 45.3335H44.0006C43.2006 45.3335 42.6673 45.8668 42.6673 46.6668C42.6673 47.4668 43.2006 48.0002 44.0006 48.0002H46.6673C47.4673 48.0002 48.0006 47.4668 48.0006 46.6668C48.0006 45.8668 47.4673 45.3335 46.6673 45.3335ZM44.0006 34.6668C43.2006 34.6668 42.6673 35.2002 42.6673 36.0002C42.6673 36.8002 43.2006 37.3335 44.0006 37.3335H46.6673C47.4673 37.3335 48.0006 36.8002 48.0006 36.0002C48.0006 35.2002 47.4673 34.6668 46.6673 34.6668H44.0006Z" fill="#00A651"/>
</svg>
