<svg width="64" height="64" viewBox="0 0 64 64" fill="none" xmlns="http://www.w3.org/2000/svg">
<path d="M32 8C30.1435 8 28.363 8.7375 27.0503 10.0503C25.7375 11.363 25 13.1435 25 15C25 16.8565 25.7375 18.637 27.0503 19.9497C28.363 21.2625 30.1435 22 32 22C33.8565 22 35.637 21.2625 36.9497 19.9497C38.2625 18.637 39 16.8565 39 15C39 13.1435 38.2625 11.363 36.9497 10.0503C35.637 8.7375 33.8565 8 32 8ZM23 15C23 12.6131 23.9482 10.3239 25.636 8.63604C27.3239 6.94821 29.6131 6 32 6C34.3869 6 36.6761 6.94821 38.364 8.63604C40.0518 10.3239 41 12.6131 41 15C41 17.3869 40.0518 19.6761 38.364 21.364C36.6761 23.0518 34.3869 24 32 24C29.6131 24 27.3239 23.0518 25.636 21.364C23.9482 19.6761 23 17.3869 23 15ZM12 14C10.4087 14 8.88258 14.6321 7.75736 15.7574C6.63214 16.8826 6 18.4087 6 20C6 21.5913 6.63214 23.1174 7.75736 24.2426C8.88258 25.3679 10.4087 26 12 26C13.5913 26 15.1174 25.3679 16.2426 24.2426C17.3679 23.1174 18 21.5913 18 20C18 18.4087 17.3679 16.8826 16.2426 15.7574C15.1174 14.6321 13.5913 14 12 14ZM4 20C4 17.8783 4.84285 15.8434 6.34315 14.3431C7.84344 12.8429 9.87827 12 12 12C14.1217 12 16.1566 12.8429 17.6569 14.3431C19.1571 15.8434 20 17.8783 20 20C20 22.1217 19.1571 24.1566 17.6569 25.6569C16.1566 27.1571 14.1217 28 12 28C9.87827 28 7.84344 27.1571 6.34315 25.6569C4.84285 24.1566 4 22.1217 4 20ZM46 20C46 18.4087 46.6321 16.8826 47.7574 15.7574C48.8826 14.6321 50.4087 14 52 14C53.5913 14 55.1174 14.6321 56.2426 15.7574C57.3679 16.8826 58 18.4087 58 20C58 21.5913 57.3679 23.1174 56.2426 24.2426C55.1174 25.3679 53.5913 26 52 26C50.4087 26 48.8826 25.3679 47.7574 24.2426C46.6321 23.1174 46 21.5913 46 20ZM52 12C49.8783 12 47.8434 12.8429 46.3431 14.3431C44.8429 15.8434 44 17.8783 44 20C44 22.1217 44.8429 24.1566 46.3431 25.6569C47.8434 27.1571 49.8783 28 52 28C54.1217 28 56.1566 27.1571 57.6569 25.6569C59.1571 24.1566 60 22.1217 60 20C60 17.8783 59.1571 15.8434 57.6569 14.3431C56.1566 12.8429 54.1217 12 52 12ZM20 33C20 31.6739 20.5268 30.4021 21.4645 29.4645C22.4021 28.5268 23.6739 28 25 28H39C40.3261 28 41.5979 28.5268 42.5355 29.4645C43.4732 30.4021 44 31.6739 44 33V44C44 47.1826 42.7357 50.2348 40.4853 52.4853C38.2348 54.7357 35.1826 56 32 56C28.8174 56 25.7652 54.7357 23.5147 52.4853C21.2643 50.2348 20 47.1826 20 44V33ZM25 30C24.2044 30 23.4413 30.3161 22.8787 30.8787C22.3161 31.4413 22 32.2044 22 33V44C22 46.6522 23.0536 49.1957 24.9289 51.0711C26.8043 52.9464 29.3478 54 32 54C34.6522 54 37.1957 52.9464 39.0711 51.0711C40.9464 49.1957 42 46.6522 42 44V33C42 32.2044 41.6839 31.4413 41.1213 30.8787C40.5587 30.3161 39.7957 30 39 30H25ZM18.18 31.414C18.0597 31.9341 17.9993 32.4662 18 33V33.534L8.224 36.154C7.4562 36.3602 6.80166 36.8628 6.40416 37.5513C6.00666 38.2398 5.8987 39.058 6.104 39.826L7.916 46.588C8.2856 47.9682 8.94669 49.2532 9.85473 50.3564C10.7628 51.4595 11.8967 52.3553 13.1801 52.9834C14.4635 53.6114 15.8665 53.9572 17.2948 53.9973C18.7231 54.0374 20.1434 53.771 21.46 53.216C21.9307 53.7533 22.4393 54.2527 22.986 54.714C21.3934 55.5188 19.6413 55.9584 17.8574 56.0006C16.0735 56.0428 14.3026 55.6866 12.6738 54.958C11.0449 54.2294 9.59898 53.1467 8.44137 51.7887C7.28376 50.4307 6.44358 48.8317 5.982 47.108L4.172 40.344C4.00202 39.7097 3.95865 39.0482 4.04437 38.3971C4.13008 37.7461 4.3432 37.1183 4.67156 36.5496C4.99991 35.9809 5.43707 35.4825 5.95807 35.0828C6.47906 34.6831 7.07369 34.3899 7.708 34.22L18.18 31.414ZM41.014 54.714C41.738 55.078 42.5073 55.3707 43.322 55.592C46.3961 56.4154 49.6714 55.9839 52.4274 54.3925C55.1835 52.8011 57.1944 50.1801 58.018 47.106L59.83 40.346C60.1734 39.0653 59.9939 37.7006 59.3312 36.5522C58.6684 35.4037 57.5767 34.5655 56.296 34.222L45.82 31.414C45.94 31.9247 46 32.4533 46 33V33.534L55.778 36.154C56.5458 36.3602 57.2003 36.8628 57.5978 37.5513C57.9953 38.2398 58.1033 39.058 57.898 39.826L56.088 46.588C55.7185 47.9687 55.0573 49.2542 54.149 50.3577C53.2407 51.4613 52.1064 52.3573 50.8225 52.9854C49.5386 53.6135 48.135 53.9591 46.7062 53.9989C45.2775 54.0387 43.8568 53.7717 42.54 53.216C42.0693 53.752 41.5607 54.2527 41.014 54.714Z" fill="#00A651"/>
</svg>
