<svg width="64" height="64" viewBox="0 0 64 64" fill="none" xmlns="http://www.w3.org/2000/svg">
<path d="M56.0013 58.6666V19.9599C56.0013 17.0319 56.0013 15.5706 55.1586 14.3333C54.3186 13.0986 52.7693 12.2879 49.668 10.6639L45.7213 8.59992C40.8573 6.05058 38.4226 4.77592 36.548 5.56525C34.668 6.35458 34.668 8.65325 34.668 13.2453V23.9999" stroke="#00A651" stroke-width="1.5" stroke-linejoin="round"/>
<path d="M58.6673 58.6663H5.33398M56.0006 21.333H50.6673M56.0006 29.333H50.6673M56.0006 37.333H50.6673" stroke="#00A651" stroke-width="1.5" stroke-linecap="round" stroke-linejoin="round"/>
<path d="M21.334 34.6667C21.334 29.6373 21.334 27.1253 22.8967 25.5627C24.4593 24 26.9713 24 32.0007 24C37.03 24 39.542 24 41.1047 25.5627C42.6673 27.1253 42.6673 29.6373 42.6673 34.6667V58.6667H21.334V34.6667Z" stroke="#00A651" stroke-width="1.5" stroke-linejoin="round"/>
<path d="M30.668 34.6665H33.3346M30.668 42.6665H33.3346" stroke="#00A651" stroke-width="1.5" stroke-linecap="round"/>
<path d="M9.33398 42.6667C11.5431 42.6667 13.334 40.2789 13.334 37.3333C13.334 34.3878 11.5431 32 9.33398 32C7.12485 32 5.33398 34.3878 5.33398 37.3333C5.33398 40.2789 7.12485 42.6667 9.33398 42.6667Z" stroke="#00A651" stroke-width="1.5"/>
<path d="M9.33398 42.6665V58.6665" stroke="#00A651" stroke-width="1.5" stroke-linecap="round"/>
</svg>
