<svg width="64" height="64" viewBox="0 0 64 64" fill="none" xmlns="http://www.w3.org/2000/svg">
<path d="M23.4374 37.9467L27.2828 36.72L31.1281 37.9467V36.5654L28.4614 34.7707V26.872L37.1281 29.744V28.2054L28.4614 23.0774V16.8C28.4614 16.4729 28.3468 16.1725 28.1174 15.8987C27.8899 15.6249 27.6117 15.488 27.2828 15.488C26.945 15.488 26.6641 15.6249 26.4401 15.8987C26.2161 16.1725 26.1041 16.4729 26.1041 16.8V23.0774L17.4374 28.2054V29.744L26.1041 26.872V34.7707L23.4374 36.5654V37.9467ZM40.1948 56C39.8357 56 39.5317 55.8782 39.2828 55.6347C39.0339 55.3894 38.9094 55.0871 38.9094 54.728C38.9094 54.5787 38.9326 54.4196 38.9788 54.2507C39.0268 54.0836 39.1157 53.9351 39.2454 53.8054C42.6926 49.9565 45.8934 45.7547 48.8481 41.2C51.8028 36.6454 53.281 32.064 53.2828 27.456C53.2828 24.2187 52.7406 21.0462 51.6561 17.9387C50.5717 14.8311 49.1139 12.2151 47.2828 10.0907C47.1637 9.97157 47.0828 9.85069 47.0401 9.72802C46.9974 9.60535 46.9761 9.46846 46.9761 9.31735C46.9761 8.93869 47.1006 8.62402 47.3494 8.37335C47.5983 8.12269 47.913 7.99824 48.2934 8.00002C48.5121 8.00002 48.7112 8.04091 48.8908 8.12269C49.0686 8.20446 49.2179 8.32802 49.3388 8.49335C51.2126 10.6462 52.7823 13.3396 54.0481 16.5734C55.3157 19.8089 55.9495 23.4365 55.9495 27.456C55.9495 32.4249 54.4472 37.2471 51.4428 41.9227C48.4383 46.5982 45.0552 51.0925 41.2934 55.4054C41.1726 55.5689 41.0143 55.7094 40.8188 55.8267C40.6232 55.9422 40.4152 56 40.1948 56ZM26.9761 52.472C31.9877 48.1094 35.9494 43.6729 38.8614 39.1627C41.7734 34.6525 43.2303 30.7502 43.2321 27.456C43.2321 22.5778 41.6872 18.5511 38.5974 15.376C35.5094 12.2027 31.6357 10.616 26.9761 10.616C22.3148 10.616 18.4392 12.2027 15.3494 15.376C12.2614 18.5511 10.7174 22.5778 10.7174 27.456C10.7174 30.7485 12.1743 34.6507 15.0881 39.1627C18.0019 43.6747 21.9646 48.1111 26.9761 52.472ZM26.9761 56.0507C20.7094 50.5094 15.9886 45.3414 12.8134 40.5467C9.63834 35.752 8.05078 31.3885 8.05078 27.456C8.05078 21.8151 9.88811 17.1618 13.5628 13.496C17.2357 9.83202 21.7068 8.00002 26.9761 8.00002C32.2437 8.00002 36.7148 9.83291 40.3894 13.4987C44.0623 17.1627 45.8988 21.8151 45.8988 27.456C45.8988 31.3885 44.3112 35.752 41.1361 40.5467C37.9628 45.3414 33.2428 50.5094 26.9761 56.0507Z" fill="#00A651"/>
</svg>
