<svg width="55" height="55" viewBox="0 0 55 55" fill="none" xmlns="http://www.w3.org/2000/svg">
<path d="M51.4168 54.0836V15.3769C51.4168 12.4489 51.4168 10.9876 50.5742 9.75024C49.7342 8.51558 48.1848 7.70491 45.0835 6.08091L41.1368 4.01691C36.2728 1.46758 33.8382 0.19291 31.9635 0.982243C30.0835 1.77158 30.0835 4.07024 30.0835 8.66224V19.4169" stroke="#00A651" stroke-width="1.5" stroke-linejoin="round"/>
<path d="M54.0833 54.0833H0.75M51.4167 16.75H46.0833M51.4167 24.75H46.0833M51.4167 32.75H46.0833" stroke="#00A651" stroke-width="1.5" stroke-linecap="round" stroke-linejoin="round"/>
<path d="M16.75 30.0837C16.75 25.0543 16.75 22.5423 18.3127 20.9797C19.8753 19.417 22.3873 19.417 27.4167 19.417C32.446 19.417 34.958 19.417 36.5207 20.9797C38.0833 22.5423 38.0833 25.0543 38.0833 30.0837V54.0837H16.75V30.0837Z" stroke="#00A651" stroke-width="1.5" stroke-linejoin="round"/>
<path d="M26.0835 30.0835H28.7502M26.0835 38.0835H28.7502" stroke="#00A651" stroke-width="1.5" stroke-linecap="round"/>
<path d="M4.75 38.0837C6.95914 38.0837 8.75 35.6958 8.75 32.7503C8.75 29.8048 6.95914 27.417 4.75 27.417C2.54086 27.417 0.75 29.8048 0.75 32.7503C0.75 35.6958 2.54086 38.0837 4.75 38.0837Z" stroke="#00A651" stroke-width="1.5"/>
<path d="M4.75 38.0835V54.0835" stroke="#00A651" stroke-width="1.5" stroke-linecap="round"/>
</svg>
