<svg width="62" height="62" viewBox="0 0 62 62" fill="none" xmlns="http://www.w3.org/2000/svg">
<path d="M24.4901 60.0896C19.1138 58.9425 14.1561 56.3403 10.1583 52.567C6.16046 48.7937 3.27629 43.9945 1.82073 38.6934C0.365159 33.3923 0.394156 27.7932 1.90455 22.5074C3.41494 17.2217 6.34866 12.4526 10.3853 8.72092C14.422 4.98924 19.4064 2.43846 24.7943 1.34712C30.1822 0.25578 35.7664 0.66585 40.937 2.53255C46.1077 4.39925 50.666 7.6508 54.1142 11.9321C57.5625 16.2135 59.7681 21.36 60.4901 26.8096" stroke="#00A651" stroke-width="1.5" stroke-linecap="round" stroke-linejoin="round"/>
<path d="M12.09 54.223L14.7567 40.7564H17.6367C18.2449 40.7584 18.8454 40.6199 19.3912 40.3516C19.937 40.0833 20.4135 39.6925 20.7833 39.2097C21.1643 38.738 21.4282 38.1828 21.5533 37.5895C21.6785 36.9962 21.6613 36.3817 21.5033 35.7964L19.5033 27.7964C19.2938 26.9291 18.7984 26.1576 18.0969 25.6061C17.3955 25.0547 16.5289 24.7553 15.6367 24.7564H1.42334M54.7567 12.7564H43.8767C42.9844 12.7553 42.1178 13.0547 41.4164 13.6061C40.715 14.1576 40.2196 14.9291 40.01 15.7963L38.7567 20.703M48.7567 36.7564H43.4233C42.5852 36.7454 41.7699 37.0294 41.12 37.5588C40.4702 38.0881 40.027 38.8291 39.8681 39.6521C39.7093 40.475 39.8447 41.3277 40.2509 42.0609C40.6571 42.7941 41.308 43.3612 42.09 43.663L47.5833 45.8497C48.3653 46.1515 49.0163 46.7186 49.4224 47.4518C49.8286 48.185 49.9641 49.0377 49.8052 49.8607C49.6463 50.6836 49.2032 51.4246 48.5533 51.9539C47.9034 52.4833 47.0881 52.7673 46.25 52.7564H40.9167M44.7567 36.7564V34.7564M44.7567 54.7564V52.7564" stroke="#00A651" stroke-width="1.5" stroke-linecap="round" stroke-linejoin="round"/>
<path d="M28.7568 44.7563C28.7568 48.9998 30.4425 53.0695 33.4431 56.0701C36.4437 59.0706 40.5134 60.7563 44.7568 60.7563C49.0003 60.7563 53.07 59.0706 56.0705 56.0701C59.0711 53.0695 60.7568 48.9998 60.7568 44.7563C60.7568 40.5129 59.0711 36.4432 56.0705 33.4426C53.07 30.4421 49.0003 28.7563 44.7568 28.7563C40.5134 28.7563 36.4437 30.4421 33.4431 33.4426C30.4425 36.4432 28.7568 40.5129 28.7568 44.7563Z" stroke="#00A651" stroke-width="1.5" stroke-linecap="round" stroke-linejoin="round"/>
</svg>
