<svg width="55" height="55" viewBox="0 0 55 55" fill="none" xmlns="http://www.w3.org/2000/svg">
<path d="M22.2967 0.75C10.0033 3.246 0.75 14.1153 0.75 27.1473C0.75 42.0247 12.8087 54.0833 27.686 54.0833C40.718 54.0833 51.5873 44.83 54.0833 32.5367" stroke="#00A651" stroke-width="1.5" stroke-linecap="round"/>
<path d="M45.9183 43.4168C46.91 43.2075 47.8646 42.8507 48.7503 42.3582M34.585 41.6595C36.1761 42.3528 37.7023 42.8684 39.1637 43.2062M24.3637 35.2782C25.465 36.0515 26.6437 36.9795 27.7903 37.7795M3.41699 32.2862C4.27566 31.8675 5.20366 31.3848 6.25166 30.9715M12.617 30.0835C14.1157 30.2488 15.7957 30.6782 17.6997 31.4782" stroke="#00A651" stroke-width="1.5" stroke-linecap="round" stroke-linejoin="round"/>
<path d="M44.75 14.0835C44.75 13.0226 44.3286 12.0052 43.5784 11.2551C42.8283 10.5049 41.8109 10.0835 40.75 10.0835C39.6891 10.0835 38.6717 10.5049 37.9216 11.2551C37.1714 12.0052 36.75 13.0226 36.75 14.0835C36.75 15.1444 37.1714 16.1618 37.9216 16.9119C38.6717 17.6621 39.6891 18.0835 40.75 18.0835C41.8109 18.0835 42.8283 17.6621 43.5784 16.9119C44.3286 16.1618 44.75 15.1444 44.75 14.0835Z" stroke="#00A651" stroke-width="1.5"/>
<path d="M40.7503 0.75C47.9663 0.75 54.0837 6.66467 54.0837 13.8433C54.0837 21.1313 47.8677 26.2487 42.1237 29.726C41.7036 29.9595 41.2309 30.082 40.7503 30.082C40.2697 30.082 39.7971 29.9595 39.377 29.726C33.6437 26.2167 27.417 21.158 27.417 13.8433C27.417 6.67 33.5343 0.75 40.7503 0.75Z" stroke="#00A651" stroke-width="1.5"/>
</svg>
