<svg width="64" height="64" viewBox="0 0 64 64" fill="none" xmlns="http://www.w3.org/2000/svg">
<path d="M50.7209 13.256C47.0148 9.54532 42.2914 7.01729 37.1482 5.99176C32.005 4.96624 26.6732 5.48929 21.8273 7.49476C16.9814 9.50022 12.8393 12.898 9.92498 17.2581C7.01065 21.6183 5.45508 26.7449 5.45508 31.9893C5.45508 37.2338 7.01065 42.3604 9.92498 46.7205C12.8393 51.0807 16.9814 54.4784 21.8273 56.4839C26.6732 58.4894 32.005 59.0124 37.1482 57.9869C42.2914 56.9614 47.0148 54.4333 50.7209 50.7227C55.686 45.7525 58.4748 39.0146 58.4748 31.9893C58.4748 24.9641 55.686 18.2262 50.7209 13.256ZM15.1476 15.1493C19.4412 10.8606 25.2145 8.37946 31.2809 8.21599C31.1309 14.2829 28.6363 20.0557 24.3209 24.3227C20.062 28.6498 14.2842 31.1465 8.21426 31.2827C8.37231 25.215 10.8542 19.4398 15.1476 15.1493ZM8.2676 33.9493C15.0266 33.7977 21.462 31.0247 26.2143 26.216C31.0159 21.4589 33.7877 15.0265 33.9476 8.26933C39.1248 8.68083 44.0242 10.7792 47.8943 14.2427L14.2409 47.8693C10.7794 44.0085 8.68093 39.1182 8.2676 33.9493ZM30.0809 55.736C24.9023 55.3303 20.0011 53.2312 16.1343 49.7627L49.7609 16.1093C53.2297 19.9865 55.3285 24.8961 55.7343 30.0827C48.9817 30.2451 42.5506 33 37.7745 37.7762C32.9983 42.5524 30.2434 48.9834 30.0809 55.736ZM48.8543 48.8293C44.5778 53.1308 38.8108 55.6228 32.7476 55.7893C32.8899 49.7235 35.363 43.9455 39.6534 39.6551C43.9438 35.3647 49.7218 32.8916 55.7876 32.7493C55.6241 38.8001 53.142 44.5568 48.8543 48.8293Z" fill="#00A651"/>
</svg>
