<svg width="64" height="64" viewBox="0 0 64 64" fill="none" xmlns="http://www.w3.org/2000/svg">
<g clip-path="url(#clip0_231_3182)">
<path d="M46.6667 64.0002V49.3335C46.6667 47.2118 45.8238 45.177 44.3235 43.6767C42.8232 42.1764 40.7884 41.3335 38.6667 41.3335C36 41.3335 0.266667 45.3335 0.266667 45.3335M40 57.3335H0M64 57.3335H53.3333M25.3333 36.0002L33.1147 30.4402C33.8018 29.9491 34.3006 29.2381 34.5286 28.4248C34.7565 27.6116 34.6998 26.7449 34.368 25.9682L31.7413 19.8429C30.7573 19.2695 27.0133 17.3335 21.3333 17.3335C15.6533 17.3335 11.9093 19.2695 10.9253 19.8402L8.29867 25.9682C7.96614 26.7452 7.90913 27.6125 8.13708 28.4263C8.36503 29.2402 8.86426 29.9517 9.552 30.4429L17.3333 36.0002M52 46.4002C52 46.4002 54.6667 50.6669 58 50.6669C59.2377 50.6669 60.4247 50.1752 61.2998 49.3C62.175 48.4249 62.6667 47.2379 62.6667 46.0002C62.6667 43.4242 60.576 41.3442 58 41.3442C54.6667 41.3442 52 45.6002 52 45.6002V46.4002ZM20.9333 12.0002C20.9333 12.0002 16.6667 9.33353 16.6667 6.0002C16.6667 4.76394 17.1578 3.57831 18.0319 2.70414C18.9061 1.82997 20.0917 1.33887 21.328 1.33887C22.5643 1.33887 23.7499 1.82997 24.6241 2.70414C25.4982 3.57831 25.9893 4.76394 25.9893 6.0002C25.9893 9.33353 21.7333 12.0002 21.7333 12.0002H20.9333Z" stroke="#00A651" stroke-width="2"/>
</g>
<defs>
<clipPath id="clip0_231_3182">
<rect width="64" height="64" fill="white"/>
</clipPath>
</defs>
</svg>
