<svg width="64" height="64" viewBox="0 0 64 64" fill="none" xmlns="http://www.w3.org/2000/svg">
<path d="M21.626 42.3732L42.37 21.6265M5.33268 58.6665L10.2607 53.7385M58.666 5.33317L53.738 10.2612M5.59935 26.3412L37.6554 58.3998L37.1834 58.8692L32.5513 58.3145C27.8847 57.7545 23.1594 58.6825 18.9567 60.7838L17.858 61.3332L2.66602 46.1412L3.21535 45.0425C5.31668 40.8398 6.24468 36.1145 5.68468 31.4478L5.13002 26.8158L5.59935 26.3412ZM26.346 5.60517L58.3993 37.6585L58.8713 37.1865L58.3167 32.5545C57.7567 27.8878 58.6847 23.1625 60.786 18.9598L61.3327 17.8585L46.1407 2.6665L45.0393 3.21584C40.8393 5.31717 36.1114 6.24517 31.4474 5.68517L26.8127 5.1305L26.346 5.60517Z" stroke="#00A651" stroke-width="2"/>
</svg>
