<svg width="64" height="64" viewBox="0 0 64 64" fill="none" xmlns="http://www.w3.org/2000/svg">
<path d="M8 46.6665V34.6665C8 33.8772 8.22756 33.0363 8.68267 32.1438C9.13778 31.2514 9.79911 30.5812 10.6667 30.1332V23.9998C10.6667 22.4958 11.1796 21.2309 12.2053 20.2052C13.2311 19.1794 14.496 18.6665 16 18.6665H28C28.9191 18.6665 29.704 18.8558 30.3547 19.2345C31.0036 19.6114 31.552 20.1332 32 20.7998C32.448 20.1332 32.9964 19.6114 33.6453 19.2345C34.296 18.8558 35.0809 18.6665 36 18.6665H48C49.504 18.6665 50.7689 19.1794 51.7947 20.2052C52.8204 21.2309 53.3333 22.4958 53.3333 23.9998V30.1332C54.2027 30.5812 54.864 31.2514 55.3173 32.1438C55.7724 33.0363 56 33.8772 56 34.6665V46.6665C56 47.0452 55.872 47.3616 55.616 47.6158C55.36 47.8701 55.0427 47.9981 54.664 47.9998C54.2853 48.0016 53.9689 47.8736 53.7147 47.6158C53.4604 47.3581 53.3333 47.0416 53.3333 46.6665V42.6665H10.6667V46.6665C10.6667 47.0452 10.5387 47.3616 10.2827 47.6158C10.0267 47.8701 9.70933 47.9981 9.33067 47.9998C8.952 48.0016 8.63556 47.8736 8.38133 47.6158C8.12711 47.3581 8 47.0416 8 46.6665ZM33.3333 29.3332H50.6667V23.9998C50.6667 23.2443 50.4107 22.6114 49.8987 22.1012C49.3867 21.5909 48.7538 21.3349 48 21.3332H36C35.2444 21.3332 34.6116 21.5892 34.1013 22.1012C33.5911 22.6132 33.3351 23.2461 33.3333 23.9998V29.3332ZM13.3333 29.3332H30.6667V23.9998C30.6667 23.2443 30.4107 22.6114 29.8987 22.1012C29.3867 21.5909 28.7538 21.3349 28 21.3332H16C15.2444 21.3332 14.6116 21.5892 14.1013 22.1012C13.5911 22.6132 13.3351 23.2461 13.3333 23.9998V29.3332ZM10.6667 39.9998H53.3333V34.6665C53.3333 33.9109 53.0773 33.2781 52.5653 32.7678C52.0533 32.2576 51.4204 32.0016 50.6667 31.9998H13.3333C12.5778 31.9998 11.9449 32.2558 11.4347 32.7678C10.9244 33.2798 10.6684 33.9127 10.6667 34.6665V39.9998Z" fill="#00A651"/>
</svg>
