<svg width="64" height="64" viewBox="0 0 64 64" fill="none" xmlns="http://www.w3.org/2000/svg">
<path d="M13.3334 53.3332C12.9547 53.3332 12.6382 53.2052 12.384 52.9492C12.1298 52.6932 12.0018 52.3758 12 51.9972C11.9982 51.6185 12.1262 51.3021 12.384 51.0478C12.6418 50.7936 12.9582 50.6665 13.3334 50.6665H17.3334V12.8212C17.3334 12.2114 17.5378 11.6994 17.9467 11.2852C18.3556 10.871 18.8622 10.6647 19.4667 10.6665H36.5333C37.1378 10.6665 37.6445 10.8727 38.0534 11.2852C38.4622 11.6976 38.6667 12.2096 38.6667 12.8212V13.3332H44.512C45.1236 13.3332 45.6356 13.5394 46.048 13.9518C46.4605 14.3643 46.6667 14.8763 46.6667 15.4878V50.6665H50.6667C51.0453 50.6665 51.3618 50.7945 51.616 51.0505C51.8702 51.3065 51.9982 51.6238 52 52.0025C52.0018 52.3812 51.8738 52.6976 51.616 52.9518C51.3582 53.2061 51.0418 53.3332 50.6667 53.3332H46.1787C45.544 53.3332 45.0222 53.127 44.6133 52.7145C44.2045 52.3021 44 51.7901 44 51.1785V15.9998H38.6667V51.1785C38.6667 51.7901 38.4605 52.3021 38.048 52.7145C37.6356 53.127 37.1236 53.3332 36.512 53.3332H13.3334ZM32.1067 30.5598C31.6978 30.151 31.2178 29.9465 30.6667 29.9465C30.1156 29.9465 29.6356 30.151 29.2267 30.5598C28.8178 30.9687 28.6133 31.4487 28.6133 31.9998C28.6133 32.551 28.8178 33.031 29.2267 33.4398C29.6356 33.8487 30.1156 34.0532 30.6667 34.0532C31.2178 34.0532 31.6978 33.8487 32.1067 33.4398C32.5156 33.031 32.72 32.551 32.72 31.9998C32.72 31.4487 32.5156 30.9687 32.1067 30.5598ZM20 50.6665H36V13.3332H20V50.6665Z" fill="#00A651"/>
</svg>
